# xmcd
#
# Track frame offsets:
#	150
#	16411
#	28651
#	39471
#	50183
#	61922
#	83228
#	97592
#	109604
#	123301
#	138100
#	168561
#	179504
#	192025
#	208142
#	218957
#	232806
#	243807
#
# Disc length: 3486 seconds
#
# Revision: 2
# Processed by: cddbd v1.5.1PL2 Copyright (c) Steve Scherf et al.
# Submitted via: EasyCDDAExtractor 9.0.0.1
#
DISCID=ed0d9c12
DTITLE=Various Artist - Strictly Blues CD3
DYEAR=1900
DGENRE=Blues
TTITLE0=BB King - Its My Own Fault Baby
TTITLE1=Elmore James - The Sky Is Crying
TTITLE2=John Lee Hooker - Send Me The Pillow You Dream On
TTITLE3=Johnny Winter - Out Of Sight
TTITLE4=Lightning Slim - Bad Luck Blues
TTITLE5=Lightin Hopkins - Dont Wake Me
TTITLE6=John Mayall - John Lee Boogie
TTITLE7=John Lee Hooker - Whiskey and Wimmen
TTITLE8=Johnny Guitar Watson - Someone Cares For Me
TTITLE9=BB King - Mr Pawnbroker
TTITLE10=Brownie McGhee and Sonny Terry - Everybodys Blue
TTITLE11=Lightin Hopkins - Blues For My Cookie
TTITLE12=Eric Clapton - Freight Loader
TTITLE13=BB King - Long Nights
TTITLE14=John Lee Hooker - No Shoes
TTITLE15=Elmore James - It Hurts Me Too
TTITLE16=Canned Heat - Cant Hold You On
TTITLE17=BB King - Evil Child
EXTD=
EXTT0=
EXTT1=
EXTT2=
EXTT3=
EXTT4=
EXTT5=
EXTT6=
EXTT7=
EXTT8=
EXTT9=
EXTT10=
EXTT11=
EXTT12=
EXTT13=
EXTT14=
EXTT15=
EXTT16=
EXTT17=
PLAYORDER=
